<svg width="290" height="178" viewBox="0 0 290 178" fill="none" xmlns="http://www.w3.org/2000/svg">
<path d="M38.4488 83.1612C38.9142 83.0438 39.107 82.5 39.3389 82.1115C40.2276 80.402 41.0771 78.5374 42.0818 76.6336C43.4343 74.147 45.1755 71.8923 46.8775 69.4825C49.4305 65.8678 52.217 62.5242 55.5863 59.5286C59.2659 56.4546 63.2573 53.962 67.833 52.4771C71.7882 51.1487 75.6681 50.8295 79.6292 52.14C84.4835 53.72 87.1689 57.1677 88.2276 62.016C89.0514 65.9335 89.5649 69.9294 89.5739 73.8876C89.6943 75.6723 89.3494 77.5746 89.1204 79.2826C89.045 80.2917 89.3553 80.2134 90.131 80.0176C93.6599 78.9619 96.9554 77.635 100.329 76.6185C103.432 75.8353 106.34 74.9362 109.482 74.3082C110.142 74.3068 111.189 73.8775 111.268 74.8475C111.425 75.468 110.261 75.4319 109.756 75.3942C106.536 75.7119 103.512 76.8053 100.448 77.7436C97.3455 78.5267 94.166 79.6592 91.0256 80.9469C89.5134 81.4936 88.7001 82.194 88.316 83.9411C87.0115 90.541 84.0367 96.4074 80.1688 102.004C78.1956 104.647 76.3776 107.252 74.2102 109.779C70.9584 113.24 67.2788 116.314 63.3265 118.962C59.4135 121.764 55.2278 124.141 50.6913 125.781C45.379 127.617 40.0261 128.638 34.3193 127.603C33.0768 127.257 31.8342 126.91 30.7844 126.02C30.0073 125.556 29.7361 125.79 29.7376 126.449C29.2767 128.546 28.8158 130.642 28.3157 132.584C27.1633 137.825 26.865 143.181 26.0621 148.499C25.681 151.566 25.6884 154.864 25.5016 158.047C25.4248 158.396 25.5814 159.017 24.9217 159.018C24.4563 159.136 24.1837 158.71 24.0662 158.244C23.7153 157.508 23.7138 156.848 23.8283 155.994C24.0498 150.987 24.5816 145.903 25.618 140.856C26.1919 137.245 26.921 133.596 27.4949 129.986C28.5991 120.631 30.2471 111.469 32.5547 102.306C33.3998 98.4621 34.3999 94.5793 35.7496 90.7733C36.6367 88.4041 36.6308 85.7653 36.8191 83.2425C37.2364 79.0117 37.3434 74.8593 37.4505 70.7068C37.449 70.0471 37.5635 69.1931 37.678 68.3391C37.5997 68.0289 37.6765 67.6795 38.181 67.7171C38.5305 67.7939 38.6088 68.1042 38.6871 68.4145C38.7292 69.889 38.7714 71.3635 38.7743 72.6829C38.5092 75.5551 38.7486 78.465 38.134 81.2604C38.1355 81.9201 38.137 82.5798 38.4488 83.1612ZM86.9082 62.019C86.7908 61.5536 86.7125 61.2433 86.595 60.7779C84.9549 56.2413 82.0376 53.1823 76.9136 52.4954C72.7988 51.8838 68.7653 52.9018 65.0436 54.5013C59.6937 56.8417 55.2399 60.7712 51.5633 65.1645C48.0026 69.3636 44.9857 73.7554 42.5516 78.4953C40.0016 83.4294 37.4516 88.3635 36.727 93.9919C35.7704 100.009 34.4644 105.949 33.3528 112.005C33.2368 112.2 32.8888 112.783 33.2383 112.859C33.782 113.052 33.9748 112.509 34.0908 112.314C37.9617 108.037 42.2227 104.651 46.8722 101.497C54.4664 96.2802 62.5681 92.4201 70.6306 88.4049C75.9022 85.7542 81.3304 83.724 86.6804 81.3836C87.572 80.9935 87.804 80.605 87.9185 79.751C88.7199 73.7731 88.0468 67.8373 86.9082 62.019ZM46.6563 126.14C48.9833 125.552 51.1928 124.499 53.4415 123.602C57.1633 122.002 60.5733 119.822 63.9441 117.486C67.2758 114.994 70.5683 112.348 73.3939 109.16C77.7287 104.105 81.4415 98.5476 84.3772 92.5261C85.6123 89.574 86.6923 86.6612 87.2285 83.5555C87.3822 82.8566 87.1487 82.5855 86.5282 82.7422C86.2179 82.8205 85.9077 82.8988 85.7525 82.9379C82.1859 84.4982 78.5802 85.9034 75.0527 87.6188C67.6484 90.9728 60.4775 94.598 53.4241 98.6885C46.6418 102.546 40.3655 107.1 35.0622 112.894C33.785 114.372 32.6237 115.655 31.8901 117.325C31.2349 119.306 30.9291 121.363 30.429 123.305C30.3537 124.314 30.7046 125.05 31.4818 125.514C32.6867 126.365 34.0844 126.672 35.4821 126.98C39.2475 127.514 42.8939 126.924 46.6563 126.14ZM134.305 68.7029C133.374 68.9379 132.793 69.2496 132.096 69.7557C128.261 72.8688 123.687 75.0135 119.268 77.119C117.795 77.8208 116.204 78.0572 114.882 76.7408C114.454 76.3537 114.338 76.548 114.106 76.9366C113.758 77.5195 113.255 78.1415 112.946 78.8795C112.056 79.9293 111.086 80.0091 110.152 78.9246C108.752 77.2979 108.708 75.1637 110.49 73.7239C111.032 73.257 111.535 72.635 112.077 72.1681C112.62 71.7012 113.124 71.7388 113.552 72.1259C114.135 72.4739 114.368 72.745 113.671 73.251C112.624 73.6803 112.005 74.4966 111.192 75.1969C110.96 75.5855 110.728 75.9741 110.69 76.4786C110.808 76.944 110.925 77.4095 111.274 77.4863C111.857 77.8342 111.856 77.1745 111.972 76.9802C112.978 75.7362 113.79 74.3761 114.641 73.1712C114.989 72.5884 115.221 72.1998 115.959 72.5085C116.502 72.7014 116.62 73.1668 116.466 73.8656C116.313 74.5645 115.849 75.3416 116.471 75.8447C117.248 76.3086 117.984 75.9577 118.721 75.6068C123.529 73.7332 127.985 71.1232 132.481 68.6683C133.063 68.3565 133.566 67.7345 134.266 68.5478L134.305 68.7029ZM154.726 63.0536C153.875 64.2585 152.946 65.1531 152.016 66.0478C149.268 68.8868 145.047 73.0874 142.338 76.0815C142.106 76.4701 141.719 76.8979 141.681 77.4024C141.574 81.5549 140.807 85.7088 140.196 89.8236C139.775 92.735 139.394 95.8015 138.469 98.6753C137.353 102.752 136.276 106.985 134.422 110.753C133.496 112.967 132.919 115.258 131.798 117.356C129.711 120.853 127.701 124.661 125.614 128.158C124.067 130.529 122.559 133.054 121.012 135.425C119.349 137.99 117.453 140.284 115.557 142.578C112.035 146.932 108.319 151.17 103.942 154.75C102.161 156.19 100.34 157.475 98.2853 158.488C94.0213 160.555 90.7952 158.233 90.1265 154.277C89.3796 150.01 90.5349 146.088 91.5351 142.205C92.5744 138.477 94.1966 135.098 95.6245 131.602C98.0571 126.202 101.422 121.228 104.593 116.137C107.724 110.891 111.672 106.264 115.775 101.598C121.387 95.0661 127.426 88.9211 133.466 82.7762C135.209 81.1812 136.912 79.4311 138.81 77.797C139.624 77.0966 140.048 76.1643 139.929 75.0392C139.499 73.3327 139.417 71.7031 139.181 70.1126C139.103 69.8023 139.14 69.2978 138.636 69.2601C138.325 69.3384 138.249 69.6878 138.172 70.0372C138.056 70.2315 137.94 70.4258 137.979 70.581C137.593 71.6684 137.208 72.7558 135.849 72.6037C134.336 72.4907 133.325 71.7557 132.973 70.3594C132.739 70.0883 132.622 69.6229 132.698 69.2735C132.503 68.4978 132.735 68.1092 133.55 68.0686C134.209 68.0671 134.753 68.2599 134.638 69.1139C134.64 69.7736 134.565 70.7827 135.263 70.9364C135.962 71.09 135.998 69.9257 136.191 69.382C136.887 68.2163 137.428 67.0897 137.969 65.9631C138.161 65.4194 138.433 65.1859 138.976 65.3787C139.481 65.4164 139.869 65.6484 140.026 66.2689C140.69 68.2465 141.199 70.2632 141.243 72.3975C141.282 72.5526 141.282 72.5526 141.282 72.5526C141.439 73.1731 141.324 74.0271 141.907 74.3751C142.645 74.6838 142.954 73.9458 143.457 73.3238C147.638 68.9681 150.736 66.2059 153.95 63.2494C154.066 63.0551 154.222 63.0159 154.726 63.0536ZM95.2971 158.417C97.5849 157.675 99.1739 156.779 100.84 155.533C103.435 153.393 105.991 151.098 108.313 148.531C111.565 145.07 114.468 141.532 117.331 137.839C120.813 133.33 123.713 128.473 126.457 123.655C128.506 120.002 130.593 116.505 132.059 112.505C133.912 108.077 135.299 103.766 136.608 99.1451C137.84 94.8737 138.607 90.7198 139.14 86.2947C139.446 84.2373 139.907 82.1407 139.863 80.0065C139.785 79.6963 140.017 79.3077 139.473 79.1149C139.124 79.038 139.047 79.3875 138.736 79.4658C134.322 83.5504 130.18 88.0612 125.843 92.456C121.778 96.6175 118.102 101.011 114.309 105.598C111.212 109.02 108.349 112.713 105.874 116.638C103.439 120.718 100.848 124.838 98.4517 129.073C96.4032 132.725 95.2479 136.647 93.704 140.337C92.3529 143.484 91.8949 146.9 91.3978 150.16C91.0529 152.063 91.3676 153.964 91.7983 155.67C92.3074 157.687 93.7849 158.964 95.2971 158.417ZM159.636 62.9695C158.707 63.8641 157.777 64.7587 157.042 65.7693C156.191 66.9742 155.535 68.2951 154.684 69.5C154.452 69.8886 154.181 70.122 153.754 70.3947C152.902 70.9399 152.086 70.3208 152.045 69.506C152.083 69.0014 152.159 68.652 152.236 68.3026C152.815 66.6714 152.849 64.8475 153.273 63.2555C153.349 62.906 153.426 62.5566 153.542 62.3623C153.735 61.8186 154.161 61.546 154.511 61.6228C155.21 61.7765 155.172 62.281 155.095 62.6305C154.941 63.3293 154.943 63.989 154.789 64.6879C154.712 65.0373 154.636 65.3867 154.83 65.5027C155.218 65.7346 155.45 65.3461 155.566 65.1518C156.61 63.4032 158.276 62.1576 159.553 60.6801C159.669 60.4858 159.98 60.4075 160.251 60.174C160.638 59.7463 161.142 59.784 161.531 60.0159C162.075 60.2087 162.347 60.635 162.349 61.2947C162.311 61.7992 162.118 62.343 161.925 62.8867C161.693 63.2753 161.462 63.6638 161.618 64.2844C162.547 63.3897 163.167 62.5734 164.019 62.0282C164.29 61.7948 164.406 61.6005 164.561 61.5613C165.259 61.0553 165.917 60.3941 166.888 60.974C167.705 61.593 167.396 62.331 167.281 63.185C167.165 63.3793 167.089 63.7287 167.128 63.8839C167.051 64.2333 167.129 64.5436 167.363 64.8147C167.751 65.0466 168.022 64.8132 168.293 64.5797C169.223 63.6851 170.036 62.9848 170.81 62.1293C172.243 60.6126 173.714 59.2511 175.38 58.0055C175.806 57.7329 176.233 57.4603 176.737 57.498C176.739 58.1577 176.351 58.5854 176.12 58.974C174.183 60.453 172.829 62.28 171.28 63.9909C170.622 64.6521 169.964 65.3133 169.266 65.8193C167.717 66.8706 165.891 66.1762 165.421 64.3146C165.343 64.0043 165.575 63.6157 165.186 63.3838C164.682 63.3461 164.45 63.7347 164.373 64.0841C163.599 64.9396 162.864 65.9502 162.09 66.8057C161.586 67.4277 161.044 67.8946 160.463 68.2064C159.881 68.5181 159.183 68.3645 158.755 67.9774C158.133 67.4743 158.52 67.0466 158.713 66.5029C159.098 65.4154 159.484 64.328 159.83 63.0854C159.83 63.0854 159.791 62.9303 159.636 62.9695ZM195.183 53.0073C191.735 55.6927 188.093 58.2621 184.373 60.5213C182.9 61.2231 181.621 62.0409 180.148 62.7427C178.791 63.2503 177.472 63.2533 176.074 62.946C174.715 62.7938 174.131 61.7862 173.663 60.5843C173.584 60.274 173.661 59.9246 173.777 59.7303C174.55 58.2151 175.478 56.6608 176.833 55.4935C177.723 54.4438 179.004 54.2857 179.898 55.215C180.599 56.0283 180.523 57.0374 179.633 58.0872C178.704 58.9818 177.58 59.7605 176.457 60.5391C176.146 60.6175 175.681 60.7349 175.759 61.0452C175.877 61.5106 176.265 61.7426 176.615 61.8194C177.663 62.0498 178.749 61.7757 179.641 61.3857C182.471 60.1763 185.028 58.5407 187.741 56.8659C189.756 55.6972 191.887 54.3342 193.903 53.1654C194.329 52.8928 194.639 52.8145 195.144 52.8522L195.183 53.0073ZM195.98 54.1263C196.793 53.426 197.412 52.6097 198.38 51.8702C198.652 51.6367 199.078 51.3641 199.543 51.2467C200.939 50.8943 201.328 51.1262 201.641 52.3673C201.994 53.7635 202.149 53.7243 203.351 53.256C204.979 52.515 206.334 51.3477 207.535 50.2196C207.922 49.7919 208.425 49.1699 209.008 49.5178C209.436 49.9049 208.933 50.5269 208.545 50.9547C207.113 52.4713 205.526 54.0272 203.548 54.6913C201.92 55.4323 200.754 54.7364 200.052 53.2634C199.74 52.682 199.469 52.9155 199.043 53.1881C197.92 53.9667 197.224 55.1325 196.333 56.1822C195.87 56.9594 195.211 57.6206 194.747 58.3978C194.36 58.8255 193.74 58.9821 193.157 58.6342C192.574 58.2863 192.612 57.7817 192.805 57.238C193.306 55.9562 193.847 54.8297 193.65 53.3943C193.648 52.7346 194.54 52.3445 195.199 52.343C195.859 52.3415 195.861 53.0012 195.823 53.5058C195.862 53.6609 195.746 53.8552 195.98 54.1263ZM227.716 44.6309C226.789 46.8449 225.047 48.4399 223.732 50.422C221.875 52.8709 220.057 55.475 218.2 57.924C216.614 60.1395 214.794 62.0839 212.78 63.9123C211.541 64.8853 209.911 64.9665 208.435 64.349C206.804 63.7706 205.831 62.531 205.555 60.7854C205.277 57.7203 205.852 54.7698 206.777 51.8961C209.125 43.5475 212.561 35.5846 216.036 27.7768C216.229 27.233 216.616 26.8053 216.188 26.4182C215.955 26.1471 215.373 26.4589 214.908 26.5763C212.349 27.5523 209.557 28.2571 206.842 29.2721C201.685 31.0689 196.683 32.8264 191.565 34.7783C185.75 37.2362 179.856 39.3838 174.002 41.6866C171.327 42.8568 168.613 43.8719 165.703 44.1113C165.082 44.2679 164.228 44.1534 163.646 43.8055C163.412 43.5344 163.063 43.4576 163.14 43.1081C163.256 42.9138 163.566 42.8355 163.76 42.9515C165.311 42.5599 166.824 42.0132 168.259 41.816C173.419 41.3386 177.876 38.7286 182.723 37.0102C189.392 34.6668 195.944 31.8579 202.768 29.4754C207.344 27.9904 211.92 26.5055 216.611 24.8262C217.232 24.6696 217.619 24.2419 217.812 23.6981C219.086 20.9012 220.555 18.2203 221.829 15.4234C222.602 13.9082 223.374 12.3931 224.147 10.8779C224.224 10.5285 224.34 10.3342 224.611 10.1007C224.959 9.51787 225.54 9.20611 226.278 9.51489C226.977 9.66853 226.823 10.3674 226.825 11.0271C226.402 12.6191 225.823 14.2502 225.206 15.7262C224.395 17.746 223.43 19.8049 222.62 21.8246C222.348 22.058 222.116 22.4466 222.35 22.7177C222.623 23.144 223.049 22.8714 223.359 22.7931C229.254 21.3051 235.265 19.6229 241.2 18.2901C248.065 16.7224 255.163 15.4257 262.302 14.9439C263.467 14.9801 264.437 14.9003 265.757 15.557C264.167 15.7934 262.653 15.6804 261.373 15.8386C255.942 16.5493 250.55 17.4152 245.236 18.5914C240.853 19.5327 236.586 20.2796 232.282 21.5311C229.024 22.3534 225.805 23.3308 222.547 24.1531C221.461 24.4272 220.803 25.0884 220.417 26.1758C218.486 30.2936 216.555 34.4114 214.43 38.4132C212.885 41.4435 211.106 44.2027 209.755 47.3491C208.134 51.3885 206.902 55.66 206.912 60.2778C206.915 61.5972 207.539 62.76 208.821 63.2616C210.297 63.8791 211.499 63.4107 212.583 62.4769C214.287 60.7268 215.951 58.8216 217.615 56.9163C220.826 52.6405 223.845 48.9083 226.979 44.9818C227.095 44.7875 227.366 44.5541 227.716 44.6309ZM225.545 11.1852C225.04 11.1475 224.963 11.497 224.847 11.6912C224.075 13.2064 223.147 14.7608 222.413 16.4311C221.448 18.4899 220.366 20.7431 219.44 22.9571C219.363 23.3066 219.092 23.54 219.481 23.772C219.869 24.0039 220.14 23.7705 220.256 23.5762C220.527 23.3427 220.643 23.1485 220.759 22.9542C222.226 19.6136 224.043 16.3498 225.161 12.9323C225.353 12.3886 225.701 11.8057 225.545 11.1852ZM214.616 34.571C216.278 32.006 217.553 29.2091 218.866 26.5674C219.098 26.1788 219.485 25.7511 219.097 25.5191C218.514 25.1712 218.166 25.754 217.934 26.1426C217.818 26.3369 217.857 26.4921 217.741 26.6863C216.583 29.2889 215.424 31.8916 214.616 34.571Z" fill="#D978AC"/>
</svg>
